<svg width="1293px" height="676px" viewBox="0 0 1293 676" version="1.1" xmlns="http://www.w3.org/2000/svg" xmlns:xlink="http://www.w3.org/1999/xlink">
    <g id="Page-1" stroke="none" stroke-width="1" fill="none" fill-rule="evenodd">
        <g id="Desktop-HD-Copy-5" transform="translate(-56.000000, -9.000000)">
            <g id="Page-1" transform="translate(57.000000, 9.000000)">
                <path d="M168,474.483886 L168,495.517029 C168,498.545143 165.5835,501 162.6018,501 L146.3982,501 C143.4165,501 141,498.545143 141,495.517029 L141,474.483886 C141,471.454857 143.4165,469 146.3982,469 L162.6018,469 C165.5835,469 168,471.454857 168,474.483886 Z" id="Stroke-1" fill="#D8D8D8" transform="translate(154.500000, 485.000000) rotate(-30.000000) translate(-154.500000, -485.000000) "></path>
                <path d="M1287,143.483886 L1287,164.517029 C1287,167.545143 1284.5835,170 1281.6018,170 L1265.3982,170 C1262.4165,170 1260,167.545143 1260,164.517029 L1260,143.483886 C1260,140.454857 1262.4165,138 1265.3982,138 L1281.6018,138 C1284.5835,138 1287,140.454857 1287,143.483886 Z" id="Stroke-1-Copy-3" fill="#D8D8D8" transform="translate(1273.500000, 154.000000) rotate(-30.000000) translate(-1273.500000, -154.000000) "></path>
                <path d="M1081,553.483886 L1081,574.517029 C1081,577.545143 1078.5835,580 1075.6018,580 L1059.3982,580 C1056.4165,580 1054,577.545143 1054,574.517029 L1054,553.483886 C1054,550.454857 1056.4165,548 1059.3982,548 L1075.6018,548 C1078.5835,548 1081,550.454857 1081,553.483886 Z" id="Stroke-1-Copy-2" fill="#D8D8D8" transform="translate(1067.500000, 564.000000) rotate(-315.000000) translate(-1067.500000, -564.000000) "></path>
                <path d="M268,268.483886 L268,289.517029 C268,292.545143 265.5835,295 262.6018,295 L246.3982,295 C243.4165,295 241,292.545143 241,289.517029 L241,268.483886 C241,265.454857 243.4165,263 246.3982,263 L262.6018,263 C265.5835,263 268,265.454857 268,268.483886 Z" id="Stroke-1-Copy" fill="#D8D8D8" transform="translate(254.500000, 279.000000) rotate(-330.000000) translate(-254.500000, -279.000000) "></path>
                <path d="M375.575325,602 L345.480432,602 C342.453502,602 340,599.54035 340,596.505836 L340,566.512206 C340,561.611215 345.910502,559.157057 349.366589,562.621804 L379.403044,592.734434 C382.814389,596.153412 380.398324,602 375.575325,602 Z" id="Stroke-3" stroke="#000000" stroke-width="3" stroke-linecap="round" transform="translate(360.500000, 581.500000) rotate(255.000000) translate(-360.500000, -581.500000) "></path>
                <path d="M1156.57532,366 L1126.48043,366 C1123.4535,366 1121,363.54035 1121,360.505836 L1121,330.512206 C1121,325.611215 1126.9105,323.157057 1130.36659,326.621804 L1160.40304,356.734434 C1163.81439,360.153412 1161.39832,366 1156.57532,366 Z" id="Stroke-3-Copy-2" stroke="#000000" stroke-width="3" stroke-linecap="round" transform="translate(1141.500000, 345.500000) rotate(366.000000) translate(-1141.500000, -345.500000) "></path>
                <path d="M914.575325,43 L884.480432,43 C881.453502,43 879,40.5403503 879,37.5058363 L879,7.51220646 C879,2.61121475 884.910502,0.157057337 888.366589,3.621804 L918.403044,33.7344344 C921.814389,37.1534116 919.398324,43 914.575325,43 Z" id="Stroke-3-Copy-3" stroke="#000000" stroke-width="3" stroke-linecap="round" transform="translate(899.500000, 22.500000) rotate(182.000000) translate(-899.500000, -22.500000) "></path>
                <path d="M38.5753249,159 L8.48043172,159 C5.45350217,159 3,156.54035 3,153.505836 L3,123.512206 C3,118.611215 8.91050225,116.157057 12.3665892,119.621804 L42.403044,149.734434 C45.814389,153.153412 43.398324,159 38.5753249,159 Z" id="Stroke-3-Copy" stroke="#000000" stroke-width="3" stroke-linecap="round" transform="translate(23.500000, 138.500000) rotate(172.000000) translate(-23.500000, -138.500000) "></path>
                <path d="M168,89.3315556 L168,94.6693333 C168,97.6133333 165.5835,100 162.6018,100 L146.3982,100 C143.4165,100 141,97.6133333 141,94.6693333 L141,89.3315556 C141,86.3866667 143.4165,84 146.3982,84 L162.6018,84 C165.5835,84 168,86.3866667 168,89.3315556 Z" id="Stroke-5" stroke="#000000" stroke-width="3" stroke-linecap="round" transform="translate(154.500000, 92.000000) rotate(-315.000000) translate(-154.500000, -92.000000) "></path>
                <path d="M112,417.452727 L112,466.548182 C112,469.559091 109.5835,472 106.6018,472 L90.3982,472 C87.4165,472 85,469.559091 85,466.548182 L85,417.452727 C85,414.440909 87.4165,412 90.3982,412 L106.6018,412 C109.5835,412 112,414.440909 112,417.452727 Z" id="Stroke-7" stroke="#000000" stroke-width="3" stroke-linecap="round" transform="translate(98.500000, 442.000000) rotate(-330.000000) translate(-98.500000, -442.000000) "></path>
                <path d="M1216,434.452727 L1216,483.548182 C1216,486.559091 1213.5835,489 1210.6018,489 L1194.3982,489 C1191.4165,489 1189,486.559091 1189,483.548182 L1189,434.452727 C1189,431.440909 1191.4165,429 1194.3982,429 L1210.6018,429 C1213.5835,429 1216,431.440909 1216,434.452727 Z" id="Stroke-7-Copy-4" stroke="#000000" stroke-width="3" stroke-linecap="round" transform="translate(1202.500000, 459.000000) rotate(-284.000000) translate(-1202.500000, -459.000000) "></path>
                <path d="M1062,618.452727 L1062,667.548182 C1062,670.559091 1059.5835,673 1056.6018,673 L1040.3982,673 C1037.4165,673 1035,670.559091 1035,667.548182 L1035,618.452727 C1035,615.440909 1037.4165,613 1040.3982,613 L1056.6018,613 C1059.5835,613 1062,615.440909 1062,618.452727 Z" id="Stroke-7-Copy-2" stroke="#000000" stroke-width="3" stroke-linecap="round" transform="translate(1048.500000, 643.000000) rotate(-30.000000) translate(-1048.500000, -643.000000) "></path>
                <path d="M358,6.45272727 L358,55.5481818 C358,58.5590909 355.5835,61 352.6018,61 L336.3982,61 C333.4165,61 331,58.5590909 331,55.5481818 L331,6.45272727 C331,3.44090909 333.4165,1 336.3982,1 L352.6018,1 C355.5835,1 358,3.44090909 358,6.45272727 Z" id="Stroke-7-Copy" stroke="#000000" stroke-width="3" stroke-linecap="round" transform="translate(344.500000, 31.000000) rotate(-45.000000) translate(-344.500000, -31.000000) "></path>
                <path d="M1156,103.452727 L1156,152.548182 C1156,155.559091 1153.5835,158 1150.6018,158 L1134.3982,158 C1131.4165,158 1129,155.559091 1129,152.548182 L1129,103.452727 C1129,100.440909 1131.4165,98 1134.3982,98 L1150.6018,98 C1153.5835,98 1156,100.440909 1156,103.452727 Z" id="Stroke-7-Copy-3" stroke="#000000" stroke-width="3" stroke-linecap="round" transform="translate(1142.500000, 128.000000) rotate(-315.000000) translate(-1142.500000, -128.000000) "></path>
                <path d="M222,283 C222,291.284545 215.284545,298 207,298 C198.715455,298 192,291.284545 192,283 C192,274.715455 198.715455,268 207,268 C215.284545,268 222,274.715455 222,283 Z" id="Stroke-9" stroke="#000000" stroke-width="3" stroke-linecap="round"></path>
                <path d="M1048,323 C1048,331.284545 1041.28455,338 1033,338 C1024.71545,338 1018,331.284545 1018,323 C1018,314.715455 1024.71545,308 1033,308 C1041.28455,308 1048,314.715455 1048,323 Z" id="Stroke-9-Copy-3" stroke="#000000" stroke-width="3" stroke-linecap="round"></path>
                <path d="M1218,479 C1218,487.284545 1211.28455,494 1203,494 C1194.71545,494 1188,487.284545 1188,479 C1188,470.715455 1194.71545,464 1203,464 C1211.28455,464 1218,470.715455 1218,479 Z" id="Stroke-9-Copy-5" stroke="#000000" stroke-width="3" stroke-linecap="round"></path>
                <path d="M1004,62 C1004,70.2845455 997.284545,77 989,77 C980.715455,77 974,70.2845455 974,62 C974,53.7154545 980.715455,47 989,47 C997.284545,47 1004,53.7154545 1004,62 Z" id="Stroke-9-Copy-4" stroke="#000000" stroke-width="3" stroke-linecap="round"></path>
                <path d="M58,154 C58,162.284545 51.2845455,169 43,169 C34.7154545,169 28,162.284545 28,154 C28,145.715455 34.7154545,139 43,139 C51.2845455,139 58,145.715455 58,154 Z" id="Stroke-9-Copy-2" stroke="#000000" stroke-width="3" stroke-linecap="round"></path>
                <path d="M334,525 C334,532.179939 328.179939,538 321,538 C313.820061,538 308,532.179939 308,525 C308,517.820061 313.820061,512 321,512 C328.179939,512 334,517.820061 334,525 Z" id="Stroke-9-Copy" stroke="#000000" stroke-width="3" stroke-linecap="round"></path>
            </g>
        </g>
    </g>
</svg>
