<svg width="48px" height="48px" viewBox="0 0 48 48" version="1.1" xmlns="http://www.w3.org/2000/svg" xmlns:xlink="http://www.w3.org/1999/xlink">
    <g id="Page-1" stroke="none" stroke-width="1" fill="none" fill-rule="evenodd">
        <g id="Desktop-HD-Copy-5" transform="translate(-677.000000, -100.000000)" fill="#6079F2">
            <g id="Page-1" transform="translate(677.000000, 100.000000)">
                <path d="M47.5240061,20.7611645 C47.1272931,20.2762881 46.5458097,20 45.9235681,20 C45.9099821,20 45.8954903,20 45.8819042,20.0009149 L44.09579,20.0375093 C43.6782451,20.0466579 43.3213845,20.3439878 43.2353395,20.7565902 L38.8397958,41.6876989 C38.4530459,43.525655 36.8634768,44.8000567 35.0456618,44.8000567 C34.9007438,44.8000567 34.7540143,44.7918229 34.6072849,44.7753554 L11.5300013,42.1844686 C11.2057473,42.148789 10.9421777,42.4433743 11.0110137,42.7644905 L11.0535834,42.9666749 C11.2745833,44.0041274 12.1259765,44.7826743 13.169386,44.8997765 L40.694746,47.9883478 C41.7553645,48.0999609 42.7317495,47.3991772 42.9545609,46.339768 L47.9542314,22.5323357 C48.0864691,21.9029112 47.9288708,21.2570193 47.5240061,20.7611645" id="Fill-1"></path>
                <path d="M30.8038957,14.7173447 L30.8038957,10.3478128 C30.8038957,9.99191915 30.7847217,9.64151489 30.747287,9.29568511 C32.5167652,10.4823021 33.7420696,12.4209617 33.9630261,14.6523872 L30.8038957,14.7173447 Z M30.3473739,24.5487915 C30.3473739,25.3667064 29.6845043,26.0309191 28.8682435,26.0309191 L28.4318087,26.0309191 C27.6155478,26.0309191 26.9535913,25.3667064 26.9535913,24.5487915 L26.9535913,23.6860468 C26.9535913,22.8681319 27.6155478,22.204834 28.4318087,22.204834 L28.8682435,22.204834 C29.6845043,22.204834 30.3473739,22.8681319 30.3473739,23.6860468 L30.3473739,24.5487915 Z M25.7821565,29.5926 C25.7821565,32.1222809 23.7360261,34.1725574 21.2123739,34.1725574 C18.6878087,34.1725574 16.6416783,32.1222809 16.6416783,29.5926 L16.6416783,29.4791532 C16.6416783,29.0189617 17.0142,28.6456851 17.4734609,28.6456851 L24.951287,28.6456851 C25.4105478,28.6456851 25.7821565,29.0189617 25.7821565,29.4791532 L25.7821565,29.5926 Z M15.3049826,25.2596638 C15.3049826,26.1553447 14.5809391,26.8808553 13.6879826,26.8808553 L13.5282,26.8808553 C12.6352435,26.8808553 11.9112,26.1553447 11.9112,25.2596638 L11.9112,24.6750468 C11.9112,23.7802809 12.6352435,23.0547702 13.5282,23.0547702 L13.6879826,23.0547702 C14.5809391,23.0547702 15.3049826,23.7802809 15.3049826,24.6750468 L15.3049826,25.2596638 Z M13.4560696,10.3478128 C13.4560696,6.31221702 16.7329826,3.02866383 20.7604174,3.02866383 C22.8576783,3.02866383 24.7458522,3.92434468 26.0788957,5.34700426 C20.9521565,5.66172766 16.8608087,9.83730213 16.6708957,15.0064511 L13.4560696,15.0723234 L13.4560696,10.3478128 Z M27.7242,8.14200426 C27.9442435,8.8382383 28.0647652,9.57930213 28.0647652,10.3478128 L28.0647652,14.7731532 L19.4118522,14.9497277 C19.6364609,11.1144936 22.8120261,8.06057872 26.6952,8.06057872 C27.0458087,8.06057872 27.387287,8.09442979 27.7242,8.14200426 L27.7242,8.14200426 Z M36.4108957,40.8823872 L41.4499826,17.0731957 C41.5842,16.4437489 41.4253304,15.7987489 41.0172,15.3028766 C40.6163739,14.8170681 40.0302,14.5416851 39.4038522,14.5416851 C39.3892435,14.5416851 39.3755478,14.5416851 39.3609391,14.5426 L36.6994174,14.5965787 C36.377113,10.440217 33.5329826,6.98191915 29.6963739,5.77608936 C28.0309826,2.52089787 24.6554609,0.283982979 20.7604174,0.283982979 C15.2228087,0.283982979 10.7169391,4.79898298 10.7169391,10.3478128 L10.7169391,15.1281319 L2.05033043,15.3056213 C1.42306957,15.3175149 0.84146087,15.6075362 0.452504348,16.0997489 C0.0635478261,16.5919617 -0.0843652174,17.2268979 0.0462,17.8407915 L4.2525913,37.5091745 C4.47446087,38.5475787 5.33272174,39.3243234 6.38546087,39.4414298 L34.1328522,42.5310255 C35.2002,42.6408128 36.186287,41.941834 36.4108957,40.8823872 L36.4108957,40.8823872 Z" id="Fill-3"></path>
            </g>
        </g>
    </g>
</svg>
